<svg width="42" height="42" viewBox="0 0 42 42" fill="none" xmlns="http://www.w3.org/2000/svg">
<g clip-path="url(#clip0_120_525)">
<path d="M34.5168 13.8745C34.0804 13.7064 33.6403 13.5507 33.1969 13.4074C33.2714 13.0657 33.3399 12.7281 33.4008 12.3964C34.4001 6.94991 33.7468 2.56209 31.5155 1.11741C29.3761 -0.267554 25.8773 1.17659 22.3438 4.62946C21.9956 4.97037 21.655 5.3211 21.3226 5.68132C21.1 5.44178 20.8735 5.2069 20.6432 4.97678C16.9399 1.28487 13.2279 -0.271151 10.999 1.17767C8.86151 2.56695 8.22859 6.6918 9.12823 11.8536C9.21773 12.3648 9.3188 12.8734 9.43131 13.3788C8.90588 13.5465 8.39887 13.7249 7.91365 13.9148C3.57179 15.6146 0.799011 18.2782 0.799011 21.0411C0.799011 23.8947 3.77571 26.7569 8.29795 28.4924C8.66458 28.6325 9.03426 28.7624 9.40664 28.8818C9.2857 29.4262 9.17833 29.9743 9.08466 30.5254C8.22699 35.5976 8.89675 39.625 11.0284 41.0055C13.2301 42.4311 16.9254 40.9659 20.5235 37.4342C20.8153 37.1471 21.1006 36.8519 21.3793 36.5487C21.7393 36.9388 22.109 37.3175 22.4878 37.6844C25.9733 41.0519 29.4155 42.4116 31.5451 41.0274C33.7447 39.5976 34.4597 35.2712 33.5315 30.0074C33.4584 29.595 33.3764 29.1847 33.2856 28.7768C33.5451 28.6904 33.7998 28.6016 34.0481 28.5091C38.7495 26.7603 41.8083 23.9328 41.8083 21.0411C41.8083 18.2681 38.946 15.5865 34.5168 13.8745ZM33.4972 26.6421C33.2729 26.7254 33.0429 26.8058 32.8084 26.884C32.2894 25.0392 31.589 23.0775 30.7318 21.0506C31.5498 19.0721 32.2232 17.1355 32.7277 15.3027C33.1472 15.439 33.5542 15.5827 33.9467 15.7344C37.7417 17.2013 40.0565 19.37 40.0565 21.0411C40.0565 22.8211 37.5565 25.1318 33.4972 26.6421ZM31.813 30.3894C32.2234 32.7169 32.2818 34.8213 32.01 36.4665C31.7659 37.9449 31.2747 38.9303 30.6673 39.3251C29.375 40.1651 26.6112 39.0733 23.6305 36.1933C23.2781 35.8522 22.9343 35.5001 22.5993 35.1375C23.7549 33.7186 24.9098 32.069 26.0369 30.2369C28.0194 30.0394 29.8924 29.7164 31.5909 29.2755C31.6727 29.6448 31.7468 30.0162 31.813 30.3894ZM14.78 39.18C13.5173 39.6806 12.5117 39.695 11.9037 39.3014C10.6102 38.4638 10.0724 35.23 10.8059 30.8923C10.8931 30.3798 10.993 29.87 11.1053 29.3637C12.7851 29.7809 14.6445 30.081 16.6317 30.2619C17.7665 32.0546 18.9546 33.7024 20.152 35.1453C19.8976 35.4217 19.6371 35.6911 19.3708 35.9532C17.7796 37.5148 16.1852 38.6228 14.78 39.18ZM8.86471 26.6311C6.86503 25.8637 5.2136 24.8663 4.08168 23.7779C3.06446 22.8 2.55104 21.8289 2.55104 21.0411C2.55104 19.3644 4.77724 17.2258 8.49034 15.7723C8.94096 15.596 9.41257 15.4297 9.90196 15.2735C10.4152 17.1477 11.0883 19.1074 11.9007 21.0889C11.0778 23.0998 10.395 25.0908 9.87681 26.9871C9.5369 26.8778 9.19943 26.7591 8.86471 26.6311ZM10.8476 11.4757C10.0769 7.05333 10.5887 3.71737 11.8768 2.88009C13.2487 1.98832 16.2824 3.25979 19.48 6.44772C19.6886 6.65608 19.8937 6.86865 20.0953 7.08535C18.9038 8.52193 17.7266 10.1574 16.6019 11.9396C14.6731 12.1403 12.8269 12.4626 11.1295 12.8945C11.0249 12.4243 10.9309 11.9513 10.8476 11.4759V11.4757ZM28.5372 16.3803C28.1363 15.6027 27.7205 14.8349 27.2901 14.0774C28.5985 14.2632 29.8522 14.5098 31.0295 14.8113C30.6761 16.0833 30.2355 17.413 29.717 18.7764C29.338 17.969 28.9446 17.1701 28.5372 16.3803ZM21.3234 8.49117C22.1314 9.47414 22.9407 10.5715 23.7367 11.7622C22.1219 11.6766 20.5045 11.6762 18.8897 11.7611C19.6865 10.5814 20.5027 9.48547 21.3234 8.49117ZM14.0633 16.3937C13.6609 17.1772 13.2749 17.9711 12.9056 18.7748C12.3955 17.4163 11.959 16.0804 11.6026 14.7904C12.7726 14.4965 14.0204 14.2562 15.3205 14.0738C14.8853 14.8359 14.4661 15.6094 14.0633 16.3936V16.3937ZM15.3578 28.1483C14.0146 27.98 12.7481 27.7521 11.5784 27.4661C11.9404 26.1531 12.3865 24.7888 12.9077 23.4011C13.2785 24.2054 13.6661 24.9998 14.0702 25.7836C14.4857 26.5894 14.916 27.3787 15.3578 28.1483ZM21.3718 33.7295C20.5413 32.7237 19.7131 31.6109 18.9043 30.4141C19.6896 30.4486 20.4901 30.4662 21.3037 30.4662C22.1396 30.4662 22.9658 30.4452 23.7791 30.4045C22.9806 31.623 22.1743 32.7374 21.3718 33.7295ZM29.7335 23.3303C30.2817 24.7332 30.7437 26.0903 31.1105 27.3808C29.9216 27.6855 28.6378 27.9309 27.2851 28.1131C27.7186 27.3415 28.1383 26.5604 28.5441 25.7701C28.9566 24.9668 29.3532 24.1534 29.7335 23.3303ZM27.0266 24.7873C26.4054 25.999 25.7492 27.1876 25.0592 28.3514C23.8093 28.4508 22.5567 28.5001 21.3037 28.4994C20.0274 28.4994 18.7861 28.4548 17.5907 28.3677C16.8827 27.2067 16.2141 26.016 15.5862 24.7981H15.5864C14.9615 23.5868 14.3778 22.3492 13.8366 21.0881C14.3765 19.8266 14.9584 18.5885 15.5811 17.3762L15.581 17.3763C16.2035 16.1637 16.8668 14.9781 17.5694 13.822C18.789 13.7184 20.0396 13.6645 21.3035 13.6645H21.3037C22.5734 13.6645 23.8256 13.719 25.0448 13.8233C25.7404 14.9776 26.3995 16.1592 27.0208 17.3657C27.6456 18.5754 28.2352 19.8075 28.7887 21.0602C28.2409 22.3257 27.6532 23.5688 27.0266 24.7873ZM30.6405 2.82146C32.0137 3.71071 32.5478 7.29669 31.685 11.9993C31.6299 12.2993 31.568 12.6049 31.5007 12.9148C29.7992 12.4738 27.9517 12.1459 26.0173 11.9421C24.8905 10.1404 23.7229 8.50233 22.5508 7.08427C22.858 6.75179 23.1725 6.42793 23.494 6.11299C26.5216 3.15475 29.3513 1.9867 30.6405 2.82146ZM21.3037 16.9294C23.3261 16.9294 24.9657 18.7703 24.9657 21.0411C24.9657 23.3119 23.3261 25.1528 21.3037 25.1528C19.2812 25.1528 17.6417 23.3119 17.6417 21.0411C17.6417 18.7703 19.2812 16.9294 21.3037 16.9294Z" fill="#D08BFA"/>
</g>
<defs>
<clipPath id="clip0_120_525">
<rect width="41.0093" height="41.0093" fill="white" transform="translate(0.799011 0.595703)"/>
</clipPath>
</defs>
</svg>
