<svg width="42" height="42" viewBox="0 0 42 42" fill="none" xmlns="http://www.w3.org/2000/svg">
<g clip-path="url(#clip0_120_494)">
<path d="M20.9913 0.194336C10.6056 0.194336 11.2541 4.71582 11.2541 4.71582L11.2656 9.40021H21.1764V10.8066H7.32922C7.32922 10.8066 0.683472 10.0499 0.683472 20.57C0.683472 31.0904 6.48405 30.7173 6.48405 30.7173H9.94581V25.8355C9.94581 25.8355 9.75919 20.0121 15.6538 20.0121H25.4835C25.4835 20.0121 31.0062 20.1017 31.0062 14.6537V5.64584C31.0062 5.64584 31.8449 0.194336 20.9913 0.194336ZM15.5264 3.3445C15.7606 3.34428 15.9926 3.39044 16.209 3.48032C16.4254 3.57019 16.622 3.70203 16.7876 3.86828C16.9532 4.03454 17.0846 4.23194 17.1741 4.4492C17.2636 4.66646 17.3096 4.89931 17.3094 5.13443C17.3096 5.36955 17.2636 5.6024 17.1741 5.81966C17.0846 6.03692 16.9532 6.23433 16.7876 6.40058C16.622 6.56683 16.4254 6.69867 16.209 6.78855C15.9926 6.87843 15.7606 6.92458 15.5264 6.92437C15.2922 6.92458 15.0603 6.87843 14.8439 6.78855C14.6275 6.69867 14.4308 6.56683 14.2652 6.40058C14.0996 6.23433 13.9683 6.03692 13.8788 5.81966C13.7893 5.6024 13.7433 5.36955 13.7435 5.13443C13.7433 4.89931 13.7893 4.66646 13.8788 4.4492C13.9683 4.23194 14.0996 4.03454 14.2652 3.86828C14.4308 3.70203 14.6275 3.57019 14.8439 3.48032C15.0603 3.39044 15.2922 3.34428 15.5264 3.3445Z" fill="url(#paint0_linear_120_494)"/>
<path d="M21.2862 41.0517C31.6718 41.0517 31.0234 36.5303 31.0234 36.5303L31.0118 31.846H21.1009V30.4396H34.9481C34.9481 30.4396 41.5938 31.1963 41.5938 20.6759C41.5938 10.1556 35.7933 10.5287 35.7933 10.5287H32.3315V15.4105C32.3315 15.4105 32.5181 21.2338 26.6235 21.2338H16.7938C16.7938 21.2338 11.2711 21.1442 11.2711 26.5923V35.6004C11.2711 35.6004 10.4325 41.0517 21.2861 41.0517H21.2862ZM26.751 37.9019C26.5168 37.9021 26.2849 37.856 26.0685 37.7661C25.8521 37.6762 25.6554 37.5444 25.4898 37.3781C25.3242 37.2119 25.1929 37.0145 25.1034 36.7972C25.0138 36.5799 24.9679 36.3471 24.9681 36.112C24.9678 35.8768 25.0138 35.644 25.1033 35.4267C25.1928 35.2094 25.3242 35.012 25.4898 34.8457C25.6554 34.6794 25.852 34.5476 26.0684 34.4577C26.2849 34.3678 26.5168 34.3217 26.751 34.3219C26.9852 34.3217 27.2172 34.3678 27.4336 34.4577C27.65 34.5476 27.8466 34.6794 28.0122 34.8457C28.1778 35.0119 28.3092 35.2093 28.3987 35.4266C28.4882 35.6438 28.5342 35.8767 28.534 36.1118C28.5342 36.3469 28.4882 36.5798 28.3987 36.797C28.3092 37.0143 28.1778 37.2117 28.0122 37.3779C27.8466 37.5442 27.65 37.676 27.4336 37.7659C27.2172 37.8558 26.9852 37.9019 26.751 37.9017V37.9019Z" fill="url(#paint1_linear_120_494)"/>
</g>
<defs>
<linearGradient id="paint0_linear_120_494" x1="4.61494" y1="3.8692" x2="24.9674" y2="23.9399" gradientUnits="userSpaceOnUse">
<stop stop-color="#387EB8"/>
<stop offset="1" stop-color="#366994"/>
</linearGradient>
<linearGradient id="paint1_linear_120_494" x1="17.0591" y1="16.8088" x2="38.9114" y2="37.3857" gradientUnits="userSpaceOnUse">
<stop stop-color="#FFE052"/>
<stop offset="1" stop-color="#FFC331"/>
</linearGradient>
<clipPath id="clip0_120_494">
<rect width="41.0093" height="41.0093" fill="white" transform="translate(0.660156 0.182861)"/>
</clipPath>
</defs>
</svg>
