<svg width="42" height="33" viewBox="0 0 42 33" fill="none" xmlns="http://www.w3.org/2000/svg">
<g clip-path="url(#clip0_120_534)">
<path d="M9.90847 8.79056H17.6412V9.58782H10.6173V15.5878H17.2224V16.385H10.6173V22.9724H17.7217V23.7695H9.90847V8.79056ZM18.334 8.79056H19.1556L22.7964 15.378L26.5177 8.79045L31.5794 0.423096L23.2635 16.0703L27.5488 23.7695H26.6949L22.7964 16.7626L18.8816 23.7695H18.044L22.3614 16.0702L18.3339 8.79056H18.334ZM27.8548 9.58782V8.79045H36.6669V9.58772H32.6072V23.7694H31.8984V9.58782H27.8548ZM0.234558 8.79045H1.12059L13.3385 32.5052L8.2895 23.7694L0.975576 9.92341L0.943386 23.7696H0.234558V8.79045ZM36.5955 22.7316C36.4507 22.7316 36.3421 22.5862 36.3421 22.398C36.3421 22.21 36.4507 22.0644 36.5955 22.0644C36.7421 22.0644 36.849 22.2099 36.849 22.398C36.849 22.5861 36.7421 22.7316 36.5955 22.7316ZM37.292 21.854H37.6713C37.6765 22.1204 37.8264 22.2995 38.0471 22.2995C38.2937 22.2995 38.4333 22.107 38.4333 21.7465V19.4625H38.8195V21.7486C38.8195 22.398 38.5299 22.772 38.0506 22.772C37.6005 22.772 37.292 22.4092 37.292 21.8539V21.854ZM39.3246 21.8249H39.7074C39.7402 22.1316 39.9712 22.3263 40.304 22.3263C40.6143 22.3263 40.8418 22.1181 40.8418 21.8315C40.8418 21.5853 40.697 21.4375 40.3677 21.3367L40.047 21.236C39.597 21.0993 39.3919 20.8172 39.3919 20.3425C39.3919 19.7671 39.7539 19.3842 40.297 19.3842C40.8021 19.3842 41.1711 19.767 41.1935 20.3112H40.8176C40.7815 20.0134 40.5814 19.8275 40.2918 19.8275C39.9867 19.8275 39.7833 20.0178 39.7833 20.3089C39.7833 20.5394 39.9142 20.6717 40.2384 20.7701L40.5125 20.8575C41.0228 21.012 41.2332 21.2807 41.2332 21.7666C41.2332 22.3846 40.8643 22.772 40.2747 22.772C39.7229 22.772 39.3522 22.4025 39.3246 21.8248V21.8249Z" fill="green"/>
</g>
<defs>
<clipPath id="clip0_120_534">
<rect width="41.0093" height="32.0943" fill="white" transform="translate(0.229553 0.423096)"/>
</clipPath>
</defs>
</svg>
