<svg width="42" height="42" viewBox="0 0 42 42" fill="none" xmlns="http://www.w3.org/2000/svg">
<g clip-path="url(#clip0_120_506)">
<path d="M21.3036 41.4044C20.6668 41.4044 20.0725 41.254 19.5207 40.9907L13.8744 38.0199C13.0253 37.6063 13.4498 37.4559 13.7046 37.3806C14.8507 37.0422 15.063 36.967 16.2516 36.3652C16.3791 36.29 16.5489 36.3276 16.6761 36.4028L21.0065 38.6968C21.1763 38.772 21.3885 38.772 21.5159 38.6968L38.4546 30.01C38.6244 29.9348 38.7094 29.7844 38.7094 29.5964V12.2602C38.7094 12.0722 38.6244 11.9218 38.4546 11.8466L21.5159 3.19732C21.3461 3.12211 21.1338 3.12211 21.0065 3.19732L4.06768 11.8467C3.89788 11.9219 3.81298 12.11 3.81298 12.2604V29.5964C3.81298 29.7468 3.89788 29.9348 4.06768 30.01L8.69517 32.3791C11.1999 33.5072 12.7705 32.1911 12.7705 30.8749V13.7644C12.7705 13.5388 12.9829 13.3131 13.28 13.3131H15.4452C15.6999 13.3131 15.9546 13.5012 15.9546 13.7644V30.8748C15.9546 33.8456 14.1291 35.5754 10.9451 35.5754C9.9687 35.5754 9.20458 35.5754 7.03958 34.6353L2.58189 32.3791C1.47817 31.8149 0.79895 30.762 0.79895 29.6339V12.298C0.79895 11.1699 1.47817 10.117 2.58189 9.55277L19.5207 0.86603C20.5819 0.339578 22.0253 0.339578 23.0866 0.86603L40.0253 9.55277C41.1291 10.1168 41.8083 11.1697 41.8083 12.298V29.634C41.8083 30.7621 41.1291 31.815 40.0253 32.3791L23.0866 41.0661C22.5347 41.2917 21.8979 41.4045 21.3036 41.4045V41.4044ZM26.5253 29.4834C19.096 29.4834 17.5678 26.4751 17.5678 23.918C17.5678 23.6923 17.78 23.4667 18.0772 23.4667H20.2846C20.5393 23.4667 20.7517 23.6171 20.7517 23.8427C21.0914 25.8357 22.0677 26.8136 26.5677 26.8136C30.1338 26.8136 31.6622 26.0991 31.6622 24.4069C31.6622 23.4291 31.2376 22.7146 25.6762 22.2256C21.0489 21.812 18.1621 20.9095 18.1621 17.638C18.1621 14.5918 21.0487 12.7868 25.8885 12.7868C31.3224 12.7868 33.997 14.4414 34.3366 18.0515C34.3366 18.1643 34.2941 18.2771 34.2092 18.3899C34.1243 18.4651 33.997 18.5403 33.8696 18.5403H31.6622C31.4497 18.5403 31.2376 18.3899 31.195 18.2019C30.6856 16.1337 29.3696 15.4568 25.8885 15.4568C21.983 15.4568 21.5159 16.6602 21.5159 17.5626C21.5159 18.6533 22.0677 18.9916 27.3318 19.5932C32.5536 20.1949 35.0158 21.0599 35.0158 24.294C34.9733 27.6033 31.9169 29.4834 26.5253 29.4834Z" fill="#539E43"/>
</g>
<defs>
<clipPath id="clip0_120_506">
<rect width="41.0093" height="41.0093" fill="white" transform="translate(0.79895 0.471191)"/>
</clipPath>
</defs>
</svg>
