<svg width="42" height="33" viewBox="0 0 42 33" fill="none" xmlns="http://www.w3.org/2000/svg">
<g clip-path="url(#clip0_120_499)">
<path d="M21.1648 32.3937C32.4892 32.3937 41.6695 25.2304 41.6695 16.3941C41.6695 7.55779 32.4892 0.394531 21.1648 0.394531C9.84041 0.394531 0.660156 7.55779 0.660156 16.3941C0.660156 25.2304 9.84041 32.3937 21.1648 32.3937Z" fill="url(#paint0_radial_120_499)"/>
<path d="M21.1649 31.2051C32.0469 31.2051 40.8686 24.574 40.8686 16.3942C40.8686 8.21432 32.0469 1.58325 21.1649 1.58325C10.2828 1.58325 1.46118 8.21432 1.46118 16.3942C1.46118 24.574 10.2828 31.2051 21.1649 31.2051Z" fill="#6181B6"/>
<path d="M25.1538 21.1961L26.1309 13.7312C26.3552 12.0433 26.163 10.7833 25.5863 9.99873C25.0256 9.23798 24.0645 8.8576 22.6548 8.8576H20.9567L21.4373 5.14893C21.4533 5.00629 21.4373 4.86365 21.3732 4.74478C21.3092 4.62592 21.2291 4.57837 21.1329 4.57837H18.7941C18.6339 4.57837 18.5058 4.74478 18.4737 4.95875L17.4325 12.8753C17.3364 11.9719 17.1121 11.2112 16.7276 10.5931C16.0388 9.42817 14.9655 8.83383 13.5078 8.83383H9.00635C8.84616 8.83383 8.71801 9.00024 8.68597 9.21421L6.58744 25.2851C6.57142 25.4277 6.58744 25.5704 6.65152 25.6893C6.7156 25.8081 6.79569 25.8557 6.89181 25.8557H9.24664C9.40683 25.8557 9.53499 25.6893 9.56703 25.4753L10.0796 21.6002H11.8257C12.7388 21.6002 13.5238 21.4576 14.1165 21.1723C14.7413 20.8632 15.3019 20.364 15.7985 19.6746C16.199 19.1278 16.5354 18.5097 16.7917 17.844L16.3752 21.0534C16.3592 21.1961 16.3752 21.3387 16.4393 21.4576C16.5034 21.5764 16.5835 21.624 16.6796 21.624H19.0184C19.1786 21.624 19.3067 21.4576 19.3388 21.2436L20.4922 12.4474H22.0941C22.7829 12.4474 22.9752 12.6376 23.0392 12.7327C23.0873 12.804 23.1834 13.0893 23.0713 13.9689L22.1422 21.0772C22.1261 21.2198 22.1422 21.3625 22.2062 21.4813C22.2703 21.6002 22.3504 21.6478 22.4465 21.6478H24.8494C24.9936 21.5764 25.1217 21.41 25.1538 21.1961ZM14.3247 15.0149C14.1806 16.1323 13.9082 16.9406 13.5078 17.3923C13.1073 17.844 12.4505 18.0817 11.5855 18.0817H10.5442L11.2971 12.3285H12.6427C13.6359 12.3285 14.0364 12.6376 14.1966 12.8991C14.4048 13.2795 14.4529 14.0165 14.3247 15.0149ZM35.1498 10.5931C34.461 9.42817 33.3877 8.83383 31.9299 8.83383H27.3965C27.2363 8.83383 27.1081 9.00024 27.0761 9.21421L24.9776 25.2613C24.9615 25.404 24.9776 25.5466 25.0416 25.6655C25.1057 25.7844 25.1858 25.8319 25.2819 25.8319H27.6368C27.797 25.8319 27.9251 25.6655 27.9571 25.4515L28.4698 21.5764H30.2159C31.129 21.5764 31.9139 21.4338 32.5066 21.1485C33.1314 20.8395 33.692 20.3402 34.1886 19.6508C34.6051 19.0802 34.9576 18.4383 35.2139 17.7489C35.4702 17.0595 35.6624 16.2987 35.7745 15.4666C36.0469 13.3983 35.8386 11.7817 35.1498 10.5931ZM32.6989 15.0149C32.5547 16.1323 32.2823 16.9406 31.8819 17.3923C31.4814 17.844 30.8246 18.0817 29.9596 18.0817H28.9183L29.6712 12.3285H31.0168C32.01 12.3285 32.4105 12.6376 32.5707 12.8991C32.795 13.2795 32.843 14.0165 32.6989 15.0149Z" fill="white"/>
<path d="M12.6425 11.8537C13.5396 11.8537 14.1323 12.0914 14.4366 12.5906C14.741 13.0899 14.8051 13.922 14.6449 15.1106C14.4847 16.3469 14.1643 17.2503 13.6998 17.7733C13.2352 18.2963 12.5304 18.5578 11.5852 18.5578H10.1595L11.0406 11.8537H12.6425ZM6.90759 25.357H9.26243L9.8231 21.1016H11.8415C12.7386 21.1016 13.4595 20.9589 14.0362 20.6736C14.6129 20.3884 15.1255 19.9367 15.6061 19.271C16.0065 18.7242 16.3269 18.1299 16.5672 17.488C16.8075 16.8461 16.9837 16.1329 17.0798 15.3484C17.3361 13.4465 17.1439 11.9725 16.5192 10.9027C15.8944 9.83292 14.9012 9.3099 13.5396 9.3099H9.00612L6.90759 25.357ZM18.8099 5.05444H21.1487L20.588 9.3099H22.6706C23.9841 9.3099 24.8812 9.64273 25.3778 10.3322C25.8744 11.0216 26.0186 12.1152 25.8263 13.6367L24.8492 21.1016H22.4783L23.4074 13.9933C23.5196 13.185 23.4715 12.6382 23.2953 12.3529C23.1191 12.0676 22.7186 11.9012 22.1259 11.9012H20.2516L19.0502 21.1016H16.7114L18.8099 5.05444ZM31.0166 11.8537C31.9137 11.8537 32.5064 12.0914 32.8107 12.5906C33.1151 13.0899 33.1792 13.922 33.019 15.1106C32.8588 16.3469 32.5384 17.2503 32.0739 17.7733C31.6093 18.2963 30.9045 18.5578 29.9593 18.5578H28.5336L29.4147 11.8537H31.0166ZM25.2817 25.357H27.6365L28.1972 21.1016H30.2156C31.1127 21.1016 31.8336 20.9589 32.4103 20.6736C32.987 20.3884 33.4996 19.9367 33.9802 19.271C34.3806 18.7242 34.701 18.1299 34.9413 17.488C35.1816 16.8461 35.3578 16.1329 35.4539 15.3484C35.7102 13.4465 35.518 11.9725 34.8933 10.9027C34.2685 9.83292 33.2753 9.3099 31.9137 9.3099H27.3802L25.2817 25.357Z" fill="#000004"/>
</g>
<defs>
<radialGradient id="paint0_radial_120_499" cx="0" cy="0" r="1" gradientUnits="userSpaceOnUse" gradientTransform="translate(12.9712 6.02113) scale(26.9277 39.9622)">
<stop stop-color="white"/>
<stop offset="0.5" stop-color="#4C6B97"/>
<stop offset="1" stop-color="#231F20"/>
</radialGradient>
<clipPath id="clip0_120_499">
<rect width="41.0093" height="32.0943" fill="white" transform="translate(0.660156 0.394531)"/>
</clipPath>
</defs>
</svg>
