<svg width="42" height="42" viewBox="0 0 42 42" fill="none" xmlns="http://www.w3.org/2000/svg">
<g clip-path="url(#clip0_120_530)">
<path d="M41.2158 9.47223C41.231 9.52675 41.2389 9.58298 41.2389 9.63953V18.4267C41.2389 18.6563 41.1123 18.8683 40.9068 18.9825L33.3013 23.229V31.6452C33.3014 31.7578 33.2709 31.8685 33.2129 31.9661C33.1549 32.0636 33.0715 32.1447 32.971 32.2012L17.0946 41.0637C17.0583 41.0836 17.0187 41.0963 16.979 41.1101C16.9641 41.1148 16.9501 41.1237 16.9344 41.1277C16.8235 41.156 16.7068 41.156 16.5958 41.1277C16.5775 41.123 16.561 41.1133 16.5437 41.1069C16.5074 41.094 16.4694 41.0828 16.4348 41.0637L0.561633 32.201C0.460766 32.1449 0.376953 32.0639 0.318649 31.9664C0.260346 31.8688 0.229613 31.758 0.229553 31.6452L0.229553 5.28368C0.229553 5.2259 0.237883 5.16982 0.252621 5.11545C0.257587 5.09697 0.269121 5.08019 0.275849 5.0617C0.288184 5.02815 0.299878 4.99367 0.31798 4.96244C0.330314 4.94163 0.348416 4.92485 0.363314 4.90559C0.382377 4.87996 0.399678 4.85355 0.421945 4.83103C0.441008 4.8127 0.465837 4.79903 0.487303 4.78303C0.511332 4.76377 0.532638 4.74295 0.559871 4.72773H0.560671L8.49758 0.296545C8.59808 0.240457 8.71201 0.210937 8.82798 0.210938C8.94394 0.210937 9.05787 0.240457 9.15837 0.296545L17.0953 4.72773H17.0969C17.1233 4.74388 17.1457 4.76377 17.1696 4.78225C17.1911 4.79825 17.2151 4.8127 17.234 4.83041C17.2572 4.85355 17.2737 4.88011 17.2934 4.90559C17.3075 4.92485 17.3266 4.94163 17.3381 4.96244C17.357 4.99444 17.3678 5.02815 17.3811 5.06186C17.3876 5.08019 17.3992 5.09697 17.4041 5.11623C17.4193 5.17075 17.4272 5.22714 17.4274 5.28368V21.7486L24.0411 18.0558V9.63875C24.0411 9.58283 24.0494 9.52582 24.0643 9.47223C24.0701 9.45296 24.0808 9.43619 24.0874 9.41786C24.1007 9.38415 24.1122 9.34951 24.1303 9.31844C24.1426 9.29763 24.1607 9.28085 24.175 9.26159C24.1947 9.23596 24.2112 9.20955 24.2343 9.18703C24.2535 9.1687 24.2774 9.15503 24.2988 9.13903C24.3237 9.11976 24.3451 9.09895 24.3716 9.08372H24.3724L32.3101 4.65254C32.4105 4.59638 32.5245 4.56682 32.6405 4.56682C32.7564 4.56682 32.8704 4.59638 32.9709 4.65254L40.9078 9.08372C40.9358 9.09972 40.9573 9.11976 40.9821 9.13809C41.0026 9.15425 41.0266 9.1687 41.0457 9.18625C41.0688 9.20955 41.0853 9.23596 41.105 9.26159C41.12 9.28085 41.1381 9.29763 41.1498 9.31844C41.1687 9.34951 41.1794 9.38415 41.1926 9.41786C41.2001 9.43619 41.2108 9.45296 41.2158 9.47223ZM39.9158 18.0559V10.7488L37.1383 12.2992L33.3012 14.4417V21.7488L39.9166 18.0559H39.9158ZM31.9789 31.2744V23.9622L28.2045 26.0526L17.4266 32.0176V39.3983L31.9789 31.2741V31.2744ZM1.55258 6.3928V31.2744L16.1034 39.3977V32.0183L8.5019 27.8466L8.4995 27.845L8.4963 27.8435C8.47067 27.829 8.44904 27.8082 8.42517 27.7907C8.40435 27.7745 8.38048 27.7618 8.36238 27.7441L8.36077 27.7417C8.33931 27.7217 8.32441 27.6968 8.30631 27.6745C8.28965 27.6527 8.26994 27.6344 8.25665 27.612L8.25585 27.6095C8.24095 27.5856 8.23182 27.5567 8.22109 27.5295C8.21035 27.5055 8.19642 27.4829 8.18969 27.4575V27.4567C8.18152 27.4262 8.17992 27.3941 8.17655 27.3629C8.17335 27.3389 8.16662 27.3149 8.16662 27.2908V10.0858L4.33017 7.94245L1.55258 6.39373V6.3928ZM8.82886 1.59238L2.21578 5.28368L8.82726 8.97483L15.4394 5.28275L8.82726 1.59238H8.82886ZM12.2679 24.6287L16.1042 22.4873V6.3928L13.3269 7.94339L9.48949 10.0857V26.18L12.2679 24.6287ZM32.6404 5.94838L26.0283 9.63953L32.6404 13.3308L39.2517 9.63875L32.6405 5.94838H32.6404ZM31.9788 14.4417L28.1417 12.2992L25.3643 10.7488V18.0559L29.2006 20.1976L31.9789 21.7488V14.4417H31.9788ZM16.7642 30.9085L26.4627 25.5393L31.3108 22.8563L24.7035 19.1675L17.0961 23.4145L10.1626 27.2852L16.7642 30.9085Z" fill="#FF2D20"/>
</g>
<defs>
<clipPath id="clip0_120_530">
<rect width="41.0093" height="41.0093" fill="white" transform="translate(0.229553 0.210938)"/>
</clipPath>
</defs>
</svg>
