<svg width="42" height="42" viewBox="0 0 42 42" fill="none" xmlns="http://www.w3.org/2000/svg">
<g clip-path="url(#clip0_120_489)">
<path d="M0.660278 0.210938H41.6696V41.2203H0.660278V0.210938Z" fill="#F7DF1E"/>
<path d="M11.4432 34.4814L14.5813 32.5821C15.1869 33.6556 15.7376 34.5639 17.0587 34.5639C18.325 34.5639 19.1236 34.0685 19.1236 32.1417V19.0383H22.9773V32.1962C22.9773 36.1877 20.6376 38.0046 17.2239 38.0046C14.141 38.0046 12.3514 36.408 11.443 34.481M25.0706 34.0684L28.2084 32.2516C29.0346 33.6006 30.1082 34.5916 32.0074 34.5916C33.6044 34.5916 34.6226 33.7932 34.6226 32.692C34.6226 31.3707 33.5765 30.9026 31.8147 30.1321L30.8515 29.7188C28.071 28.5355 26.2267 27.0489 26.2267 23.9107C26.2267 21.0202 28.4289 18.8179 31.87 18.8179C34.32 18.8179 36.0818 19.6714 37.3479 21.9011L34.3472 23.8282C33.6864 22.6446 32.971 22.1766 31.8698 22.1766C30.7411 22.1766 30.0253 22.8924 30.0253 23.8282C30.0253 24.9843 30.7411 25.4526 32.3927 26.1683L33.3561 26.5811C36.632 27.9852 38.4763 29.4165 38.4763 32.6371C38.4763 36.1059 35.7511 38.0051 32.0899 38.0051C28.5114 38.0051 26.199 36.2984 25.0704 34.0685" fill="black"/>
</g>
<defs>
<clipPath id="clip0_120_489">
<rect width="41.0093" height="41.0093" fill="white" transform="translate(0.660278 0.210938)"/>
</clipPath>
</defs>
</svg>
